<mxfile host="app.diagrams.net" agent="Mozilla/5.0 (Macintosh; Intel Mac OS X 10_15_7) AppleWebKit/537.36 (KHTML, like Gecko) Chrome/137.0.0.0 Safari/537.36" version="27.1.3">
  <diagram name="Page-1" id="tE1BhxHDLiDn4h3ElvTv">
    <mxGraphModel dx="807" dy="493" grid="1" gridSize="10" guides="1" tooltips="1" connect="1" arrows="1" fold="1" page="1" pageScale="1" pageWidth="850" pageHeight="1100" math="0" shadow="0">
      <root>
        <mxCell id="BcgsS0X-bSqGrvKcsd7j-0" />
        <mxCell id="BcgsS0X-bSqGrvKcsd7j-1" parent="BcgsS0X-bSqGrvKcsd7j-0" />
        <mxCell id="JhZu5EWD45NsehXG_2zZ-0" value="Quarter 1" style="text;strokeColor=none;fillColor=none;html=1;align=center;verticalAlign=middle;whiteSpace=wrap;rounded=0;fontSize=16;" vertex="1" parent="BcgsS0X-bSqGrvKcsd7j-1">
          <mxGeometry x="240" y="200" width="85" height="30" as="geometry" />
        </mxCell>
      </root>
    </mxGraphModel>
  </diagram>
</mxfile>
